<svg width="40" height="40" viewBox="0 0 40 40" fill="none" xmlns="http://www.w3.org/2000/svg">
<path fill-rule="evenodd" clip-rule="evenodd" d="M5.45428 2.23296C4.00219 2.02424 3.16962 2.29635 2.73322 2.73277C2.3796 3.0864 2.13366 3.69248 2.16509 4.69981C2.19657 5.7085 2.50702 6.99824 3.12293 8.52649C4.24573 11.3125 6.30677 14.704 9.12661 18.2919C10.4726 16.7062 11.9446 15.107 13.5259 13.5256C15.1054 11.946 16.7045 10.4739 18.2919 9.12635C15.6368 7.03954 13.0796 5.36061 10.7892 4.17183C8.69654 3.08572 6.8827 2.43829 5.45428 2.23296ZM20 7.72047C17.1212 5.42536 14.3192 3.56752 11.7853 2.2524C9.58167 1.10867 7.52456 0.345781 5.76194 0.092419C4.02297 -0.157542 2.3444 0.0633022 1.20412 1.20362C0.281505 2.12626 -0.0387221 3.40875 0.00367041 4.76726C0.0460204 6.1244 0.449386 7.67776 1.11722 9.33487C2.38038 12.4691 4.6727 16.1766 7.72078 20.0001C4.67277 23.8237 2.38051 27.531 1.1174 30.6652C0.449581 32.3223 0.0462306 33.8757 0.00388927 35.2328C-0.0384946 36.5913 0.281736 37.8737 1.20434 38.7964C2.34462 39.9367 4.0232 40.1575 5.76216 39.9076C7.52479 39.6542 9.58189 38.8913 11.7855 37.7476C14.3193 36.4325 17.1212 34.5747 20 32.2797C22.8788 34.5747 25.6807 36.4325 28.2145 37.7476C30.4181 38.8913 32.4752 39.6542 34.2378 39.9076C35.9768 40.1575 37.6554 39.9367 38.7957 38.7964C39.7183 37.8737 40.0385 36.5913 39.9961 35.2328C39.9538 33.8757 39.5504 32.3223 38.8826 30.6652C37.6195 27.531 35.3272 23.8237 32.2792 20.0001C35.3273 16.1766 37.6196 12.4691 38.8828 9.33487C39.5506 7.67776 39.954 6.1244 39.9963 4.76726C40.0387 3.40875 39.7185 2.12626 38.7959 1.20362C37.6556 0.0633022 35.977 -0.157542 34.2381 0.092419C32.4754 0.345781 30.4183 1.10867 28.2147 2.2524C25.6808 3.56752 22.8788 5.42536 20 7.72047ZM20 10.5144C18.3619 11.8892 16.7008 13.4088 15.055 15.0547C13.7714 16.3383 12.5634 17.6324 11.4403 18.9189H28.5597C27.4365 17.6324 26.2286 16.3383 24.945 15.0547C23.2992 13.4088 21.6381 11.8892 20 10.5144ZM28.5597 21.0814H11.4403C12.5634 22.3678 13.7713 23.6618 15.0548 24.9453C16.7007 26.5912 18.3618 28.1109 20 29.4858C21.6382 28.1109 23.2993 26.5912 24.9452 24.9453C26.2287 23.6618 27.4366 22.3678 28.5597 21.0814ZM21.7081 30.8738C24.3631 32.9606 26.9202 34.6394 29.2106 35.8282C31.3032 36.9143 33.1171 37.5617 34.5455 37.767C35.9976 37.9758 36.8302 37.7036 37.2666 37.2672C37.6202 36.9136 37.8661 36.3075 37.8347 35.3002C37.8032 34.2916 37.4928 33.0018 36.8769 31.4736C35.7541 28.6876 33.6931 25.2962 30.8734 21.7083C29.5274 23.294 28.0556 24.8931 26.4743 26.4744C24.8948 28.054 23.2956 29.5263 21.7081 30.8738ZM18.2919 30.8738C16.7044 29.5263 15.1052 28.054 13.5257 26.4744C11.9444 24.8931 10.4726 23.294 9.12661 21.7083C6.30685 25.2962 4.24587 28.6876 3.12311 31.4736C2.50722 33.0018 2.19678 34.2916 2.16531 35.3002C2.13388 36.3075 2.37982 36.9136 2.73344 37.2672C3.16984 37.7036 4.00241 37.9758 5.4545 37.767C6.88292 37.5617 8.69676 36.9143 10.7894 35.8282C13.0798 34.6394 15.6369 32.9606 18.2919 30.8738ZM30.8734 18.2919C29.5274 16.7062 28.0554 15.107 26.4741 13.5256C24.8946 11.946 23.2955 10.4739 21.7081 9.12635C24.3632 7.03954 26.9204 5.36061 29.2108 4.17183C31.3035 3.08572 33.1173 2.43829 34.5457 2.23296C35.9978 2.02424 36.8304 2.29635 37.2668 2.73277C37.6204 3.0864 37.8663 3.69248 37.8349 4.69981C37.8034 5.7085 37.493 6.99824 36.8771 8.52649C35.7543 11.3125 33.6932 14.704 30.8734 18.2919Z" fill="white"/>
</svg>
